<?xml version="1.0" standalone="no"?>
<!DOCTYPE svg PUBLIC "-//W3C//DTD SVG 20010904//EN"
 "http://www.w3.org/TR/2001/REC-SVG-20010904/DTD/svg10.dtd">
<svg version="1.0" xmlns="http://www.w3.org/2000/svg"
 width="568.000000pt" height="275.000000pt" viewBox="0 0 568.000000 275.000000"
 preserveAspectRatio="xMidYMid meet">

<g transform="translate(0.000000,275.000000) scale(0.100000,-0.100000)"
fill="#000000" stroke="none">
<path d="M1360 2680 c-32 -8 -99 -71 -100 -93 0 -10 -62 -3 -245 25 -251 38
-471 22 -604 -45 -85 -42 -106 -72 -106 -147 0 -67 16 -95 82 -146 74 -57 262
-123 396 -140 77 -10 46 10 -47 29 -106 22 -204 69 -257 123 -40 41 -43 48
-47 109 -4 64 -4 65 34 103 47 47 123 77 235 92 92 13 166 8 339 -21 63 -11
130 -22 148 -25 l33 -5 -21 -26 c-11 -14 -20 -30 -20 -35 0 -6 -35 -58 -78
-117 -294 -399 -540 -796 -615 -990 l-17 -44 -57 7 c-287 33 -383 9 -383 -98
0 -42 3 -48 42 -76 25 -19 53 -30 72 -29 29 0 27 2 -22 24 -48 22 -53 27 -50
52 5 45 54 63 173 63 55 0 123 -3 151 -6 l52 -7 -5 -56 c-4 -48 -2 -60 18 -85
22 -28 25 -28 88 -23 36 3 84 13 106 22 l40 15 -52 -5 c-45 -5 -53 -3 -63 15
-6 11 -10 39 -8 60 l3 40 185 3 c195 4 256 15 328 59 19 12 48 22 65 23 18 1
51 12 75 24 53 27 177 144 244 230 29 36 56 71 61 76 14 16 2 -24 -70 -217
-64 -174 -66 -178 -97 -182 -17 -3 -71 -10 -121 -16 -298 -37 -537 -135 -659
-270 -149 -165 -40 -343 209 -342 155 1 272 59 411 204 91 95 136 161 212 307
53 101 55 103 84 97 35 -7 80 2 72 15 -3 5 -25 9 -50 9 -42 0 -45 1 -38 23 20
66 207 524 243 595 23 46 39 87 36 92 -9 15 -37 12 -78 -9 -24 -12 -58 -19
-90 -19 -30 0 -67 -6 -84 -16 -18 -9 -43 -16 -56 -16 -68 0 -180 -113 -255
-259 -57 -111 -79 -173 -90 -256 -6 -53 -10 -61 -42 -79 -29 -17 -56 -21 -165
-24 -117 -4 -299 9 -311 20 -9 9 58 183 112 289 117 234 343 568 586 868 l44
54 105 -2 c128 -2 236 19 280 56 39 34 33 37 -20 11 -47 -23 -193 -36 -275
-24 l-46 7 41 49 c23 27 38 53 34 59 -7 13 -44 13 -95 1z m246 -793 c5 -14
-101 -212 -159 -297 -63 -92 -208 -213 -229 -192 -14 14 16 100 75 217 73 146
143 234 212 266 47 22 94 24 101 6z m-226 -665 c0 -14 -128 -221 -173 -279
-73 -95 -187 -197 -262 -234 -111 -55 -236 -54 -300 2 -83 73 -46 203 86 305
75 57 204 125 293 154 121 40 356 74 356 52z"/>
<path d="M2037 1979 c-83 -20 -157 -79 -157 -127 0 -7 -17 -36 -38 -65 -102
-138 -160 -261 -169 -357 -4 -45 -2 -59 15 -80 18 -22 27 -25 89 -24 52 1 80
7 118 26 49 25 51 26 75 8 31 -21 77 -33 84 -21 3 5 -9 11 -26 15 -17 3 -39
13 -48 21 -15 14 -12 19 33 67 62 67 149 197 189 285 35 77 48 176 28 212 -23
44 -104 61 -193 40z m102 -74 c29 -61 -23 -234 -114 -380 -24 -39 -53 -79 -64
-89 -20 -18 -21 -18 -31 8 -25 67 -32 122 -28 214 l5 96 39 33 c22 18 47 35
57 39 14 4 16 12 11 38 -5 28 -1 37 22 55 40 31 84 25 103 -14z m-266 -331 c4
-37 17 -90 31 -120 l25 -54 -29 -15 c-102 -53 -147 61 -80 203 16 35 34 61 38
58 5 -3 12 -35 15 -72z"/>
<path d="M2505 1949 c-29 -14 -110 -150 -95 -159 14 -8 -77 -244 -147 -384
-24 -48 -42 -91 -39 -94 10 -9 85 18 110 41 14 12 34 48 45 80 11 32 31 77 45
100 35 59 180 213 250 264 81 60 116 56 116 -13 0 -19 5 -24 25 -24 52 0 89
125 49 165 -40 39 -125 -15 -302 -191 -131 -130 -132 -128 -41 72 32 71 59
136 59 142 0 14 -47 15 -75 1z"/>
<path d="M3212 1580 c-57 -35 -353 -279 -591 -487 l-94 -83 -61 0 c-138 -1
-263 -29 -307 -71 -24 -22 -29 -35 -29 -73 0 -39 6 -53 43 -99 l44 -53 -65
-69 c-139 -149 -218 -319 -177 -381 27 -41 45 -31 45 26 0 98 65 225 182 353
l53 58 55 -30 c85 -46 237 -86 483 -126 27 -4 40 -13 47 -30 27 -72 146 -73
194 -1 26 41 21 46 -54 46 l-70 0 0 58 c0 71 14 152 42 250 24 83 40 96 127
108 77 10 72 24 -8 24 -52 0 -71 4 -71 13 0 26 179 369 205 393 24 22 72 114
89 172 6 19 4 22 -21 22 -15 0 -43 -9 -61 -20z m-166 -338 c-47 -105 -88 -202
-92 -217 l-6 -25 -180 0 c-99 0 -178 3 -176 8 5 12 167 161 258 238 138 116
275 214 278 200 2 -7 -35 -99 -82 -204z m-578 -282 c-2 -6 -52 -55 -112 -110
-117 -107 -118 -107 -151 -46 -25 46 -9 84 48 117 64 36 224 65 215 39z m462
7 c0 -2 -20 -62 -44 -133 -25 -71 -48 -160 -52 -197 l-6 -68 -57 6 c-77 9
-268 52 -337 75 -64 22 -144 66 -144 79 0 18 181 170 240 201 46 26 134 38
268 39 72 1 132 0 132 -2z m68 -449 c-2 -6 -13 -18 -25 -25 -18 -12 -23 -12
-37 2 -25 26 -19 35 25 35 26 0 39 -4 37 -12z"/>
<path d="M5223 1191 c-23 -9 -58 -35 -78 -58 -19 -23 -63 -60 -97 -83 -59 -39
-62 -40 -70 -21 -15 42 -101 36 -197 -14 -57 -30 -70 -41 -104 -86 -28 -37
-35 -85 -17 -119 5 -10 39 -39 75 -64 40 -29 67 -56 71 -72 4 -14 5 -26 3 -28
-2 -1 -46 -10 -97 -18 -159 -28 -230 -84 -102 -82 80 1 136 16 184 49 20 14
55 28 76 31 22 4 40 10 40 15 0 5 -13 6 -30 3 -33 -7 -38 3 -19 38 11 20 -4
78 -20 78 -4 0 -33 24 -64 53 -50 46 -57 57 -57 91 0 69 98 133 159 103 21
-11 26 -19 25 -50 -1 -20 3 -37 8 -37 10 0 53 41 59 57 2 5 32 13 66 17 l62 7
-62 -128 c-52 -109 -62 -138 -65 -194 -4 -60 -2 -68 19 -83 48 -33 137 -9 207
57 l32 31 0 -40 c0 -60 16 -76 79 -76 31 1 69 9 92 20 38 19 40 19 76 1 20
-10 41 -15 47 -12 6 4 -4 11 -21 15 -18 5 -35 13 -38 19 -4 5 14 32 39 59 132
141 204 332 146 390 -25 25 -113 27 -168 5 -41 -18 -82 -52 -82 -71 0 -6 -21
-42 -46 -78 -25 -37 -61 -98 -81 -136 -47 -93 -139 -165 -201 -158 -24 3 -27
8 -30 47 -4 52 21 127 84 252 l43 86 47 7 c26 3 69 6 96 6 74 0 49 17 -37 25
-41 4 -75 9 -75 11 0 2 16 36 36 75 20 39 34 72 33 74 -2 1 -23 -5 -46 -14z
m-98 -130 c-4 -15 -15 -21 -33 -21 l-27 1 30 24 c33 27 40 26 30 -4z m466 -33
c17 -32 5 -116 -30 -199 -33 -77 -99 -184 -115 -184 -29 0 -49 190 -26 249 5
14 25 36 45 48 26 17 34 28 31 43 -7 25 30 65 60 65 14 0 28 -9 35 -22z m-201
-275 c6 -36 18 -80 27 -96 16 -33 11 -41 -36 -54 -33 -8 -61 27 -61 76 0 31
42 141 54 141 2 0 9 -30 16 -67z"/>
<path d="M4030 1060 c-8 -5 -32 -10 -52 -10 -21 0 -55 -6 -75 -14 -21 -8 -51
-17 -67 -21 -69 -15 -182 -174 -230 -324 -17 -54 -26 -67 -49 -75 -21 -8 -31
-6 -44 7 -22 21 -21 120 2 226 17 82 26 103 66 149 38 43 36 52 -9 52 -49 0
-78 -21 -93 -68 -34 -107 -269 -362 -310 -336 -29 17 30 169 121 313 51 82 52
96 4 88 -20 -3 -45 -14 -56 -24 -23 -20 -70 -108 -62 -115 2 -3 -15 -46 -40
-97 -49 -101 -62 -154 -47 -194 9 -23 16 -27 49 -27 59 0 108 40 230 185 l75
90 -9 -70 c-12 -95 -10 -175 5 -203 9 -17 20 -22 52 -22 22 0 53 7 69 15 25
13 29 13 34 0 9 -24 58 -17 107 14 43 28 139 123 192 191 15 19 27 28 26 20 0
-8 -24 -78 -53 -155 l-53 -140 -34 -3 c-98 -8 -275 -45 -353 -73 -108 -39
-223 -114 -262 -170 -23 -34 -29 -53 -29 -96 0 -50 3 -57 37 -88 94 -87 258
-80 399 16 96 65 192 186 268 337 l31 62 48 0 c34 0 43 3 32 10 -8 5 -27 10
-42 10 -16 0 -28 4 -28 8 0 14 167 426 194 480 14 28 26 54 26 57 0 9 -54 5
-70 -5z m-54 -67 c-4 -10 -30 -61 -59 -113 -38 -71 -72 -116 -134 -177 -125
-126 -145 -106 -63 65 43 91 83 152 126 196 35 34 58 45 103 45 27 1 32 -2 27
-16z m-176 -498 c0 -12 -45 -94 -88 -159 -131 -199 -299 -309 -420 -277 -54
15 -90 46 -97 84 -25 131 208 298 467 336 40 6 84 13 98 15 14 2 28 4 33 5 4
0 7 -1 7 -4z"/>
<path d="M4221 1037 c-26 -13 -83 -101 -79 -121 2 -6 -17 -51 -42 -100 -39
-76 -45 -97 -45 -149 0 -55 3 -62 24 -73 50 -26 132 35 263 194 33 40 62 72
63 70 2 -2 -2 -44 -10 -94 -20 -136 0 -198 64 -196 40 1 80 23 129 72 56 56
54 74 -2 22 -51 -47 -89 -61 -112 -41 -14 12 -16 29 -11 109 8 126 30 204 72
256 43 52 44 64 5 64 -50 0 -78 -20 -97 -68 -46 -122 -271 -363 -314 -336 -27
16 30 167 110 290 28 44 51 87 51 97 0 20 -33 23 -69 4z"/>
</g>
</svg>
